<svg width="74px" height="72px" viewBox="0 0 74 72" version="1.1" xmlns="http://www.w3.org/2000/svg">
    <g id="Page-1" stroke="none" stroke-width="1" fill="none" fill-rule="evenodd">
        <g id="pickaxe-1" fill-rule="nonzero">
            <g id="fire">
                <path d="M30,0 C31.3333,0 32.6667,0 34,0 C38,2 42,4 46,6 C46,7.33333 46.6667,8 48,8 C48,9.33333 48,10.6667 48,12 C45.7903,9.79905 43.1236,8.46571 40,8 C39.3166,6.32351 37.9832,5.65684 36,6 C33.3333,6 30.6667,6 28,6 C25.3333,6 22.6667,6 20,6 C17.896,6.2989 15.896,5.96557 14,5 C19.6203,3.43548 24.9537,1.76882 30,0 Z"
                      id="Path" fill="#EB9A28"/>
                <path d="M54,0 C54.6667,0 55.3333,0 56,0 C55.3333,2.66667 54.6667,2.66667 54,0 Z" id="Path"
                      fill="#A72019"/>
                <path d="M62,2 C62,2.66667 62,3.33333 62,4 C59.3333,3.33333 59.3333,2.66667 62,2 Z" id="Path"
                      fill="#A72019"/>
                <path d="M62,2 C63.3333,2 64,2.66667 64,4 C63.3333,4 62.6667,4 62,4 C62,3.33333 62,2.66667 62,2 Z"
                      id="Path" fill="#EB9A28"/>
                <path d="M62,4 C62.6667,4 63.3333,4 64,4 C64,4.66667 64,5.33333 64,6 C62.6667,6 62,5.33333 62,4 Z"
                      id="Path" fill="#A72019"/>
                <path d="M64,4 C65.3333,4 66,4.66667 66,6 C65.3333,6 64.6667,6 64,6 C64,5.33333 64,4.66667 64,4 Z"
                      id="Path" fill="#EB9A28"/>
                <path d="M10,6 C11.837,6.13945 12.1704,6.80612 11,8 C10.20245,7.54311 9.86912,6.87644 10,6 Z" id="Path"
                      fill="#EB9A28"/>
                <path d="M20,6 C22.6667,6 25.3333,6 28,6 C25.8647,7.86895 23.1981,8.53562 20,8 C20,7.33333 20,6.66667 20,6 Z"
                      id="Path" fill="#A72019"/>
                <path d="M36,6 C37.9832,5.65684 39.3166,6.32351 40,8 C38.0168,8.34316 36.6834,7.67649 36,6 Z" id="Path"
                      fill="#A72019"/>
                <path d="M46,6 C46.6667,6 47.3333,6 48,6 C48,6.66667 48,7.33333 48,8 C46.6667,8 46,7.33333 46,6 Z"
                      id="Path" fill="#A72019"/>
                <path d="M48,6 C48.6667,6 49.3333,6 50,6 C50,6.66667 50,7.33333 50,8 C49.3333,8 48.6667,8 48,8 C48,7.33333 48,6.66667 48,6 Z"
                      id="Path" fill="#EB9A28"/>
                <path d="M50,6 C51.3333,6 52,6.66667 52,8 C51.3333,8 50.6667,8 50,8 C50,7.33333 50,6.66667 50,6 Z"
                      id="Path" fill="#A72019"/>
                <path d="M64,6 C64.6667,6 65.3333,6 66,6 C66,7.33333 66,8.66667 66,10 C64.3235,9.31658 63.6568,7.98324 64,6 Z"
                      id="Path" fill="#A72019"/>
                <path d="M66,6 C67.6765,6.68342 68.3432,8.01676 68,10 C67.3333,10 66.6667,10 66,10 C66,8.66667 66,7.33333 66,6 Z"
                      id="Path" fill="#EB9A28"/>
                <path d="M16,8 C16,8.66667 16,9.33333 16,10 C15.3333,10 14.6667,10 14,10 C14,8.66667 14.6667,8 16,8 Z"
                      id="Path" fill="#EB9A28"/>
                <path d="M16,8 C17.3333,8 18.6667,8 20,8 C19.3166,9.67649 17.9832,10.34316 16,10 C16,9.33333 16,8.66667 16,8 Z"
                      id="Path" fill="#A72019"/>
                <path d="M40,8 C43.1236,8.46571 45.7903,9.79905 48,12 C48,10.6667 48,9.33333 48,8 C48.6667,8 49.3333,8 50,8 C53.7165,12.7662 56.3831,18.0996 58,24 C59.8079,25.4179 60.4746,27.4179 60,30 C58,30 56,30 54,30 C54,28.6667 53.3333,28 52,28 C51.0944,26.0833 49.7611,24.4166 48,23 C42.8298,20.7447 37.4964,19.078 32,18 C27.9755,18.6791 23.9755,19.3458 20,20 C22.6841,17.4139 26.0174,15.7472 30,15 C26.0546,14.0091 22.0546,13.6758 18,14 C25.3818,12.2132 32.7152,10.21319 40,8 Z"
                      id="Path" fill="#A72019"/>
                <path d="M50,8 C50.6667,8 51.3333,8 52,8 C57.6463,10.9846 60.9796,15.6513 62,22 C62,23.3333 62.6667,24 64,24 C64,25.3333 64,26.6667 64,28 C64,28.6667 64,29.3333 64,30 C62.6667,30 61.3333,30 60,30 C60.4746,27.4179 59.8079,25.4179 58,24 C56.3831,18.0996 53.7165,12.7662 50,8 Z"
                      id="Path" fill="#EB9A28"/>
                <path d="M14,10 C14,10.6667 14,11.3333 14,12 C10.9461,11.854 8.94611,13.1874 8,16 C6.66667,16 6,16.6667 6,18 C4.66667,18 4,18.6667 4,20 C3.33333,20 2.66667,20 2,20 C3.5752,13.7582 7.5752,10.42488 14,10 Z"
                      id="Path" fill="#EB9A28"/>
                <path d="M14,10 C14.6667,10 15.3333,10 16,10 C16,11.3333 15.3333,12 14,12 C14,11.3333 14,10.6667 14,10 Z"
                      id="Path" fill="#A72019"/>
                <path d="M66,10 C66.6667,10 67.3333,10 68,10 C67.3333,12.6667 66.6667,12.6667 66,10 Z" id="Path"
                      fill="#A72019"/>
                <path d="M14,12 C13.0539,14.8126 11.0539,16.146 8,16 C8.94611,13.1874 10.9461,11.854 14,12 Z" id="Path"
                      fill="#A72019"/>
                <path d="M48,12 C49.837,12.1395 50.1704,12.8061 49,14 C48.2025,13.5431 47.8691,12.8764 48,12 Z"
                      id="Path" fill="#EB9A28"/>
                <path d="M18,14 C18,15.3333 17.3333,16 16,16 C16,14.6667 16.6667,14 18,14 Z" id="Path"
                      fill="#A72019"/>
                <path d="M18,14 C22.0546,13.6758 26.0546,14.0091 30,15 C26.0174,15.7472 22.6841,17.4139 20,20 C18.0168,19.6568 16.6834,20.3235 16,22 C14.6667,22 14,22.6667 14,24 C10.9461,23.854 8.94611,25.1874 8,28 C7.33333,28 6.66667,28 6,28 C5.52539,25.4179 6.19206,23.4179 8,22 C9.33333,22 10,21.3333 10,20 C11.3333,20 12,19.3333 12,18 C13.3333,17.3333 14.6667,16.6667 16,16 C17.3333,16 18,15.3333 18,14 Z"
                      id="Path" fill="#EB9A28"/>
                <path d="M32,14 C33.837,14.1395 34.1704,14.8061 33,16 C32.2025,15.5431 31.8691,14.8764 32,14 Z"
                      id="Path" fill="#EB9A28"/>
                <path d="M8,16 C8,17.3333 7.33333,18 6,18 C6,16.6667 6.66667,16 8,16 Z" id="Path" fill="#A72019"/>
                <path d="M6,18 C6,19.3333 5.33333,20 4,20 C4,18.6667 4.66667,18 6,18 Z" id="Path" fill="#A72019"/>
                <path d="M12,18 C12,19.3333 11.3333,20 10,20 C10,18.6667 10.6667,18 12,18 Z" id="Path"
                      fill="#A72019"/>
                <path d="M2,20 C2.66667,20 3.33333,20 4,20 C4,21.3333 3.33333,22 2,22 C2,21.3333 2,20.6667 2,20 Z"
                      id="Path" fill="#A72019"/>
                <path d="M10,20 C10,21.3333 9.33333,22 8,22 C8,20.6667 8.66667,20 10,20 Z" id="Path"
                      fill="#A72019"/>
                <path d="M20,20 C19.3166,21.6765 17.9832,22.3432 16,22 C16.6834,20.3235 18.0168,19.6568 20,20 Z"
                      id="Path" fill="#A72019"/>
                <path d="M70,22 C70,26 70,30 70,34 C69.3333,34 68.6667,34 68,34 C68,32.6667 67.3333,32 66,32 C66,30.6667 65.3333,30 64,30 C64,29.3333 64,28.6667 64,28 C65.2348,27.7786 66.2348,27.1119 67,26 C67.6667,24 68.3333,22 69,20 C69.7975,20.4569 70.1309,21.1236 70,22 Z"
                      id="Path" fill="#A72019"/>
                <path d="M0,22 C0.666667,22 1.333333,22 2,22 C2.47461,24.5821 1.80794,26.5821 0,28 C0,26 0,24 0,22 Z"
                      id="Path" fill="#A72019"/>
                <path d="M16,22 C16,23.3333 15.3333,24 14,24 C14,22.6667 14.6667,22 16,22 Z" id="Path"
                      fill="#A72019"/>
                <path d="M30,22 C33.8573,21.4616 37.1906,22.4616 40,25 C35.6036,25.7458 31.2703,26.7458 27,28 C26,27.6667 25,27.3333 24,27 C26.1415,25.2965 28.1415,23.6298 30,22 Z"
                      id="Path" fill="#A72019"/>
                <path d="M62,22 C63.3333,22 64,22.6667 64,24 C64,22.6667 63.3333,22 62,22 Z" id="Path"
                      fill="#A7201A"/>
                <path d="M70,22 C71.3333,24 72.6667,26 74,28 C74,30.6667 74,33.3333 74,36 C73.3333,36 72.6667,36 72,36 C72,34.6667 71.3333,34 70,34 C70,30 70,26 70,22 Z"
                      id="Path" fill="#EB9A28"/>
                <path d="M14,24 C13.0539,26.8126 11.0539,28.146 8,28 C8.94611,25.1874 10.9461,23.854 14,24 Z" id="Path"
                      fill="#A72019"/>
                <path d="M58,24 C58.262,25.4778 57.9287,26.8112 57,28 C56.6667,27.3333 56.3333,26.6667 56,26 C56.2472,24.7867 56.9138,24.12 58,24 Z"
                      id="Path" fill="#EB9A28"/>
                <path d="M48,28 C46.163,27.8605 45.8296,27.1939 47,26 C47.7975,26.4569 48.1309,27.1236 48,28 Z"
                      id="Path" fill="#A72019"/>
                <path d="M6,28 C6,29.3333 5.33333,30 4,30 C4,28.6667 4.66667,28 6,28 Z" id="Path" fill="#EB9A28"/>
                <path d="M6,28 C6.66667,28 7.33333,28 8,28 C6.9564,34.1365 5.28973,40.1365 3,46 C2.01998,43.4135 1.68665,40.7469 2,38 C3.80794,36.5821 4.47461,34.5821 4,32 C4,31.3333 4,30.6667 4,30 C5.33333,30 6,29.3333 6,28 Z"
                      id="Path" fill="#A7201A"/>
                <path d="M20,28 C21.837,28.1395 22.1704,28.8061 21,30 C20.2025,29.5431 19.8691,28.8764 20,28 Z"
                      id="Path" fill="#A72019"/>
                <path d="M48,28 C49.3333,28 50.6667,28 52,28 C53.3333,28 54,28.6667 54,30 C54,30.6667 54,31.3333 54,32 C53.3333,32 52.6667,32 52,32 C50,31.3333 48.6667,30 48,28 Z"
                      id="Path" fill="#A72019"/>
                <path d="M4,32 C4.47461,34.5821 3.80794,36.5821 2,38 C1.52539,35.4179 2.19206,33.4179 4,32 Z" id="Path"
                      fill="#EB9A28"/>
                <path d="M44,32 C45.837,32.1395 46.1704,32.8061 45,34 C44.2025,33.5431 43.8691,32.8764 44,32 Z"
                      id="Path" fill="#A72019"/>
                <path d="M8,50 C9.67649,50.6834 10.34316,52.0168 10,54 C8.32351,53.3166 7.65684,51.9832 8,50 Z"
                      id="Path" fill="#A72019"/>
                <path d="M14,58 C13.3333,58 12.6667,58 12,58 C12,56.6667 11.3333,56 10,56 C10,55.3333 10,54.6667 10,54 C10.34316,52.0168 9.67649,50.6834 8,50 C8.56563,48.4217 9.56563,47.0884 11,46 C12.626,49.8714 13.626,53.8714 14,58 Z"
                      id="Path" fill="#EB9A28"/>
                <path d="M10,56 C11.3333,56 12,56.6667 12,58 C10.6667,58 10,57.3333 10,56 Z" id="Path"
                      fill="#A72019"/>
                <path d="M12,58 C12.6667,58 13.3333,58 14,58 C14,58.6667 14,59.3333 14,60 C12.6667,60 12,59.3333 12,58 Z"
                      id="Path" fill="#A72019"/>
                <path d="M14,58 C15.3333,58 16,58.6667 16,60 C15.3333,60 14.6667,60 14,60 C14,59.3333 14,58.6667 14,58 Z"
                      id="Path" fill="#EB9A28"/>
                <path d="M14,60 C14.6667,60 15.3333,60 16,60 C16,60.6667 16,61.3333 16,62 C14.6667,62 14,61.3333 14,60 Z"
                      id="Path" fill="#A72019"/>
                <path d="M16,62 C17.837,62.1395 18.1704,62.8061 17,64 C16.2025,63.5431 15.8691,62.8764 16,62 Z"
                      id="Path" fill="#A72019"/>
            </g>
            <g id="pickaxe" transform="translate(12.063350, 30.000000)">
                <path d="M41.93665,0 C43.93665,0 45.93665,0 47.93665,0 C49.26995,0 50.60335,0 51.93665,0 C51.93665,0.6667 51.93665,1.3333 51.93665,2 C49.26995,2 46.60335,2 43.93665,2 C43.26995,2 42.60335,2 41.93665,2 C41.93665,1.3333 41.93665,0.6667 41.93665,0 Z"
                      id="Path" fill="#000302"/>
                <path d="M41.93665,2 C42.60335,2 43.26995,2 43.93665,2 C46.07195,3.869 48.73855,4.5356 51.93665,4 C50.33525,7.0836 49.66855,10.417 49.93665,14 C48.26015,13.3166 47.59345,11.9832 47.93665,10 C43.11315,9.6118 41.11315,6.9452 41.93665,2 Z"
                      id="Path" fill="#4F565D"/>
                <path d="M43.93665,2 C46.60335,2 49.26995,2 51.93665,2 C51.93665,2.6667 51.93665,3.3333 51.93665,4 C48.73855,4.5356 46.07195,3.869 43.93665,2 Z"
                      id="Path" fill="#B6BDC5"/>
                <path d="M51.93665,2 C52.60335,2 53.26995,2 53.93665,2 C55.26995,2 55.93665,2.6667 55.93665,4 C54.60335,4 53.26995,4 51.93665,4 C51.93665,3.3333 51.93665,2.6667 51.93665,2 Z"
                      id="Path" fill="#010401"/>
                <path d="M5.93665,4 C4.60335,4 3.26995,4 1.93665,4 C2.05665,2.9138 2.72335,2.2472 3.93665,2 C5.14995,2.2472 5.81665,2.9138 5.93665,4 Z"
                      id="Path" fill="#060000"/>
                <path d="M57.93665,4 C59.26995,4 59.93665,4.6667 59.93665,6 C60.27985,7.9832 59.61315,9.3166 57.93665,10 C57.93665,8 57.93665,6 57.93665,4 Z"
                      id="Path" fill="#A72019"/>
                <path d="M5.93665,4 C7.91985,3.6568 9.25325,4.3235 9.93665,6 C7.95345,6.3432 6.62005,5.6765 5.93665,4 Z"
                      id="Path" fill="#0A0000"/>
                <path d="M55.93665,4 C56.60335,4 57.26995,4 57.93665,4 C57.93665,6 57.93665,8 57.93665,10 C57.93665,10.6667 57.93665,11.3333 57.93665,12 C57.26995,12 56.60335,12 55.93665,12 C55.93665,9.3333 55.93665,6.6667 55.93665,4 Z"
                      id="Path" fill="#000402"/>
                <path d="M51.93665,4 C53.26995,4 54.60335,4 55.93665,4 C55.93665,6.6667 55.93665,9.3333 55.93665,12 C54.26015,12.6834 53.59345,14.0168 53.93665,16 C52.60335,15.3333 51.26995,14.6667 49.93665,14 C49.66855,10.417 50.33525,7.0836 51.93665,4 Z"
                      id="Path" fill="#B6BDC4"/>
                <path d="M9.93665,6 C12.51875,5.5254 14.51875,6.1921 15.93665,8 C13.35455,8.4746 11.35455,7.8079 9.93665,6 Z"
                      id="Path" fill="#090000"/>
                <path d="M39.93665,2 C40.60335,2 41.26995,2 41.93665,2 C41.11315,6.9452 43.11315,9.6118 47.93665,10 C47.59345,11.9832 48.26015,13.3166 49.93665,14 C51.26995,14.6667 52.60335,15.3333 53.93665,16 C53.93665,16.6667 53.93665,17.3333 53.93665,18 C52.60335,18 51.93665,18.6667 51.93665,20 C50.60335,20 49.26995,20 47.93665,20 C48.15805,18.7652 48.82475,17.7652 49.93665,17 C48.74785,16.0713 47.41445,15.738 45.93665,16 C44.51875,14.1921 42.51875,13.5254 39.93665,14 C39.93665,12.6667 39.93665,11.3333 39.93665,10 C39.93665,9.3333 39.93665,8.6667 39.93665,8 C39.93665,6 39.93665,4 39.93665,2 Z"
                      id="Path" fill="#2C3034"/>
                <path d="M15.93665,8 C18.51875,7.5254 20.51875,8.1921 21.93665,10 C19.35455,10.4746 17.35455,9.8079 15.93665,8 Z"
                      id="Path" fill="#0A0000"/>
                <path d="M1.93665,4 C3.99155,7.3883 6.65815,10.055 9.93665,12 C7.18975,12.3134 4.52315,11.98 1.93665,11 C-0.64555,8.4167 -0.64555,6.0833 1.93665,4 Z"
                      id="Path" fill="#1A0C05"/>
                <path d="M21.93665,10 C25.13475,9.4644 27.80135,10.131 29.93665,12 C26.73855,12.5356 24.07195,11.869 21.93665,10 Z"
                      id="Path" fill="#0A0000"/>
                <path d="M55.93665,12 C56.60335,12 57.26995,12 57.93665,12 C57.93665,13.3333 57.26995,14 55.93665,14 C55.93665,13.3333 55.93665,12.6667 55.93665,12 Z"
                      id="Path" fill="#A72019"/>
                <path d="M9.93665,12 C12.51875,11.5254 14.51875,12.1921 15.93665,14 C13.35455,14.4746 11.35455,13.8079 9.93665,12 Z"
                      id="Path" fill="#040303"/>
                <path d="M29.93665,12 C31.93665,12 33.93665,12 35.93665,12 C35.93665,12.6667 35.93665,13.3333 35.93665,14 C33.35455,14.4746 31.35455,13.8079 29.93665,12 Z"
                      id="Path" fill="#090000"/>
                <path d="M15.93665,14 C18.51875,13.5254 20.51875,14.1921 21.93665,16 C19.35455,16.4746 17.35455,15.8079 15.93665,14 Z"
                      id="Path" fill="#050000"/>
                <path d="M1.93665,4 C3.26995,4 4.60335,4 5.93665,4 C6.62005,5.6765 7.95345,6.3432 9.93665,6 C11.35455,7.8079 13.35455,8.4746 15.93665,8 C17.35455,9.8079 19.35455,10.4746 21.93665,10 C24.07195,11.869 26.73855,12.5356 29.93665,12 C31.35455,13.8079 33.35455,14.4746 35.93665,14 C34.36275,17.2084 31.69605,18.5418 27.93665,18 C26.51875,16.1921 24.51875,15.5254 21.93665,16 C20.51875,14.1921 18.51875,13.5254 15.93665,14 C14.51875,12.1921 12.51875,11.5254 9.93665,12 C6.65815,10.055 3.99155,7.3883 1.93665,4 Z"
                      id="Path" fill="#7F4E24"/>
                <path d="M21.93665,16 C24.51875,15.5254 26.51875,16.1921 27.93665,18 C25.35455,18.4746 23.35455,17.8079 21.93665,16 Z"
                      id="Path" fill="#080000"/>
                <path d="M39.93665,14 C42.51875,13.5254 44.51875,14.1921 45.93665,16 C45.93665,17.3333 45.93665,18.6667 45.93665,20 C44.26015,20.6834 43.59345,22.0168 43.93665,24 C41.93665,24 39.93665,24 37.93665,24 C37.71525,22.7652 37.04855,21.7652 35.93665,21 C37.54665,18.7746 38.88005,16.4413 39.93665,14 Z"
                      id="Path" fill="#4E555C"/>
                <path d="M45.93665,16 C47.41445,15.738 48.74785,16.0713 49.93665,17 C48.82475,17.7652 48.15805,18.7652 47.93665,20 C47.26995,20 46.60335,20 45.93665,20 C45.93665,18.6667 45.93665,17.3333 45.93665,16 Z"
                      id="Path" fill="#DDE2E5"/>
                <path d="M53.93665,16 C54.60335,16 55.26995,16 55.93665,16 C55.93665,17.3333 55.26995,18 53.93665,18 C53.93665,17.3333 53.93665,16.6667 53.93665,16 Z"
                      id="Path" fill="#A72019"/>
                <path d="M53.93665,18 C53.93665,18.6667 53.93665,19.3333 53.93665,20 C53.26995,20 52.60335,20 51.93665,20 C51.93665,18.6667 52.60335,18 53.93665,18 Z"
                      id="Path" fill="#A72019"/>
                <path d="M39.93665,10 C39.93665,11.3333 39.93665,12.6667 39.93665,14 C38.88005,16.4413 37.54665,18.7746 35.93665,21 C37.04855,21.7652 37.71525,22.7652 37.93665,24 C36.60335,25.3333 35.26995,26.6667 33.93665,28 C34.23555,25.896 33.90225,23.896 32.93665,22 C30.94725,20.8681 29.28055,19.5348 27.93665,18 C31.69605,18.5418 34.36275,17.2084 35.93665,14 C37.26995,14 37.93665,13.3333 37.93665,12 C37.93665,10.6667 38.60335,10 39.93665,10 Z"
                      id="Path" fill="#1D1006"/>
                <path d="M51.93665,20 C52.60335,20 53.26995,20 53.93665,20 C54.27985,21.9832 53.61315,23.3166 51.93665,24 C51.93665,22.6667 51.93665,21.3333 51.93665,20 Z"
                      id="Path" fill="#030201"/>
                <path d="M47.93665,20 C49.26995,20 50.60335,20 51.93665,20 C51.93665,21.3333 51.93665,22.6667 51.93665,24 C49.93665,23.3333 48.60335,22 47.93665,20 Z"
                      id="Path" fill="#AA7443"/>
                <path d="M45.93665,20 C46.60335,20 47.26995,20 47.93665,20 C48.60335,22 49.93665,23.3333 51.93665,24 C49.34665,25.9767 46.67995,27.9767 43.93665,30 C43.81665,28.9138 43.14995,28.2472 41.93665,28 C39.93665,28.6667 38.60335,30 37.93665,32 C38.18385,33.2133 38.85045,33.88 39.93665,34 C37.88175,37.3883 35.21515,40.055 31.93665,42 C29.93665,42 27.93665,42 25.93665,42 C27.09405,36.3379 29.76075,31.6712 33.93665,28 C35.26995,26.6667 36.60335,25.3333 37.93665,24 C39.93665,24 41.93665,24 43.93665,24 C45.61315,23.3166 46.27985,21.9832 45.93665,20 Z"
                      id="Path" fill="#282B2E"/>
                <path d="M43.93665,30 C42.60335,30 41.93665,30.6667 41.93665,32 C40.60335,32 39.93665,32.6667 39.93665,34 C38.85045,33.88 38.18385,33.2133 37.93665,32 C38.60335,30 39.93665,28.6667 41.93665,28 C43.14995,28.2472 43.81665,28.9138 43.93665,30 Z"
                      id="Path" fill="#6B757C"/>
                <path d="M43.93665,30 C43.93665,31.3333 43.26995,32 41.93665,32 C41.93665,30.6667 42.60335,30 43.93665,30 Z"
                      id="Path" fill="#020000"/>
                <path d="M41.93665,32 C41.93665,33.3333 41.26995,34 39.93665,34 C39.93665,32.6667 40.60335,32 41.93665,32 Z"
                      id="Path" fill="#020000"/>
                <path d="M39.93665,8 C39.93665,8.6667 39.93665,9.3333 39.93665,10 C38.60335,10 37.93665,10.6667 37.93665,12 C37.26995,12 36.60335,12 35.93665,12 C35.63775,9.896 35.97105,7.896 36.93665,6 C37.70185,7.1119 38.70185,7.7786 39.93665,8 Z"
                      id="Path" fill="#A72019"/>
                <path d="M55.93665,12 C55.93665,12.6667 55.93665,13.3333 55.93665,14 C55.93665,14.6667 55.93665,15.3333 55.93665,16 C55.26995,16 54.60335,16 53.93665,16 C53.59345,14.0168 54.26015,12.6834 55.93665,12 Z"
                      id="Path" fill="#000301"/>
                <path d="M45.93665,20 C46.27985,21.9832 45.61315,23.3166 43.93665,24 C43.59345,22.0168 44.26015,20.6834 45.93665,20 Z"
                      id="Path" fill="#ACB5BC"/>
            </g>
        </g>
    </g>
</svg>