<svg xmlns="http://www.w3.org/2000/svg" version="1.1" width="74px" height="72px">
    <style>
        .red-fill {
            fill: #a72019;
        }
        .yellow-fill {
            fill: #eb9a28;
        }
        .black-fill {
            fill: #020000;
        }
        .brown-fill {
            fill: #7f4e24;
        }
    </style>
    <g>
        <path class="yellow-fill"
              d="M 29.5,-0.5 C 30.8333,-0.5 32.1667,-0.5 33.5,-0.5C 37.5,1.5 41.5,3.5 45.5,5.5C 45.5,6.83333 46.1667,7.5 47.5,7.5C 47.5,8.83333 47.5,10.1667 47.5,11.5C 45.2903,9.29905 42.6236,7.96571 39.5,7.5C 38.8166,5.82351 37.4832,5.15684 35.5,5.5C 32.8333,5.5 30.1667,5.5 27.5,5.5C 24.8333,5.5 22.1667,5.5 19.5,5.5C 17.396,5.7989 15.396,5.46557 13.5,4.5C 19.1203,2.93548 24.4537,1.26882 29.5,-0.5 Z"/>
    </g>
    <g>
        <path class="red-fill"
              d="M 53.5,-0.5 C 54.1667,-0.5 54.8333,-0.5 55.5,-0.5C 54.8333,2.16667 54.1667,2.16667 53.5,-0.5 Z"/>
    </g>
    <g>
        <path class="red-fill"
              d="M 61.5,1.5 C 61.5,2.16667 61.5,2.83333 61.5,3.5C 58.8333,2.83333 58.8333,2.16667 61.5,1.5 Z"/>
    </g>
    <g>
        <path class="yellow-fill"
              d="M 61.5,1.5 C 62.8333,1.5 63.5,2.16667 63.5,3.5C 62.8333,3.5 62.1667,3.5 61.5,3.5C 61.5,2.83333 61.5,2.16667 61.5,1.5 Z"/>
    </g>
    <g> 
        <path class="red-fill"
              d="M 61.5,3.5 C 62.1667,3.5 62.8333,3.5 63.5,3.5C 63.5,4.16667 63.5,4.83333 63.5,5.5C 62.1667,5.5 61.5,4.83333 61.5,3.5 Z"/>
    </g>
    <g>
        <path class="yellow-fill"
              d="M 63.5,3.5 C 64.8333,3.5 65.5,4.16667 65.5,5.5C 64.8333,5.5 64.1667,5.5 63.5,5.5C 63.5,4.83333 63.5,4.16667 63.5,3.5 Z"/>
    </g>
    <g>
        <path class="yellow-fill"
              d="M 9.5,5.5 C 11.337,5.63945 11.6704,6.30612 10.5,7.5C 9.70245,7.04311 9.36912,6.37644 9.5,5.5 Z"/>
    </g>
    <g>
        <path class="red-fill"
              d="M 19.5,5.5 C 22.1667,5.5 24.8333,5.5 27.5,5.5C 25.3647,7.36895 22.6981,8.03562 19.5,7.5C 19.5,6.83333 19.5,6.16667 19.5,5.5 Z"/>
    </g>
    <g>
        <path class="red-fill"
              d="M 35.5,5.5 C 37.4832,5.15684 38.8166,5.82351 39.5,7.5C 37.5168,7.84316 36.1834,7.17649 35.5,5.5 Z"/>
    </g>
    <g>
        <path class="red-fill"
              d="M 45.5,5.5 C 46.1667,5.5 46.8333,5.5 47.5,5.5C 47.5,6.16667 47.5,6.83333 47.5,7.5C 46.1667,7.5 45.5,6.83333 45.5,5.5 Z"/>
    </g>
    <g>
        <path class="yellow-fill"
              d="M 47.5,5.5 C 48.1667,5.5 48.8333,5.5 49.5,5.5C 49.5,6.16667 49.5,6.83333 49.5,7.5C 48.8333,7.5 48.1667,7.5 47.5,7.5C 47.5,6.83333 47.5,6.16667 47.5,5.5 Z"/>
    </g>
    <g>
        <path class="red-fill"
              d="M 49.5,5.5 C 50.8333,5.5 51.5,6.16667 51.5,7.5C 50.8333,7.5 50.1667,7.5 49.5,7.5C 49.5,6.83333 49.5,6.16667 49.5,5.5 Z"/>
    </g>
    <g>
        <path class="red-fill"
              d="M 63.5,5.5 C 64.1667,5.5 64.8333,5.5 65.5,5.5C 65.5,6.83333 65.5,8.16667 65.5,9.5C 63.8235,8.81658 63.1568,7.48324 63.5,5.5 Z"/>
    </g>
    <g>
        <path class="yellow-fill"
              d="M 65.5,5.5 C 67.1765,6.18342 67.8432,7.51676 67.5,9.5C 66.8333,9.5 66.1667,9.5 65.5,9.5C 65.5,8.16667 65.5,6.83333 65.5,5.5 Z"/>
    </g>
    <g>
        <path class="yellow-fill"
              d="M 15.5,7.5 C 15.5,8.16667 15.5,8.83333 15.5,9.5C 14.8333,9.5 14.1667,9.5 13.5,9.5C 13.5,8.16667 14.1667,7.5 15.5,7.5 Z"/>
    </g>
    <g>
        <path class="red-fill"
              d="M 15.5,7.5 C 16.8333,7.5 18.1667,7.5 19.5,7.5C 18.8166,9.17649 17.4832,9.84316 15.5,9.5C 15.5,8.83333 15.5,8.16667 15.5,7.5 Z"/>
    </g>
    <g>
        <path class="red-fill"
              d="M 39.5,7.5 C 42.6236,7.96571 45.2903,9.29905 47.5,11.5C 47.5,10.1667 47.5,8.83333 47.5,7.5C 48.1667,7.5 48.8333,7.5 49.5,7.5C 53.2165,12.2662 55.8831,17.5996 57.5,23.5C 59.3079,24.9179 59.9746,26.9179 59.5,29.5C 57.5,29.5 55.5,29.5 53.5,29.5C 53.5,28.1667 52.8333,27.5 51.5,27.5C 50.5944,25.5833 49.2611,23.9166 47.5,22.5C 42.3298,20.2447 36.9964,18.578 31.5,17.5C 27.4755,18.1791 23.4755,18.8458 19.5,19.5C 22.1841,16.9139 25.5174,15.2472 29.5,14.5C 25.5546,13.5091 21.5546,13.1758 17.5,13.5C 24.8818,11.7132 32.2152,9.71319 39.5,7.5 Z"/>
    </g>
    <g>
        <path class="yellow-fill"
              d="M 49.5,7.5 C 50.1667,7.5 50.8333,7.5 51.5,7.5C 57.1463,10.4846 60.4796,15.1513 61.5,21.5C 61.5,22.8333 62.1667,23.5 63.5,23.5C 63.5,24.8333 63.5,26.1667 63.5,27.5C 63.5,28.1667 63.5,28.8333 63.5,29.5C 62.1667,29.5 60.8333,29.5 59.5,29.5C 59.9746,26.9179 59.3079,24.9179 57.5,23.5C 55.8831,17.5996 53.2165,12.2662 49.5,7.5 Z"/>
    </g>
    <g>
        <path class="yellow-fill"
              d="M 13.5,9.5 C 13.5,10.1667 13.5,10.8333 13.5,11.5C 10.4461,11.354 8.44611,12.6874 7.5,15.5C 6.16667,15.5 5.5,16.1667 5.5,17.5C 4.16667,17.5 3.5,18.1667 3.5,19.5C 2.83333,19.5 2.16667,19.5 1.5,19.5C 3.0752,13.2582 7.0752,9.92488 13.5,9.5 Z"/>
    </g>
    <g>
        <path class="red-fill"
              d="M 13.5,9.5 C 14.1667,9.5 14.8333,9.5 15.5,9.5C 15.5,10.8333 14.8333,11.5 13.5,11.5C 13.5,10.8333 13.5,10.1667 13.5,9.5 Z"/>
    </g>
    <g>
        <path class="red-fill"
              d="M 65.5,9.5 C 66.1667,9.5 66.8333,9.5 67.5,9.5C 66.8333,12.1667 66.1667,12.1667 65.5,9.5 Z"/>
    </g>
    <g>
        <path class="red-fill"
              d="M 13.5,11.5 C 12.5539,14.3126 10.5539,15.646 7.5,15.5C 8.44611,12.6874 10.4461,11.354 13.5,11.5 Z"/>
    </g>
    <g>
        <path class="yellow-fill"
              d="M 47.5,11.5 C 49.337,11.6395 49.6704,12.3061 48.5,13.5C 47.7025,13.0431 47.3691,12.3764 47.5,11.5 Z"/>
    </g>
    <g>
        <path class="red-fill"
              d="M 17.5,13.5 C 17.5,14.8333 16.8333,15.5 15.5,15.5C 15.5,14.1667 16.1667,13.5 17.5,13.5 Z"/>
    </g>
    <g>
        <path class="yellow-fill"
              d="M 17.5,13.5 C 21.5546,13.1758 25.5546,13.5091 29.5,14.5C 25.5174,15.2472 22.1841,16.9139 19.5,19.5C 17.5168,19.1568 16.1834,19.8235 15.5,21.5C 14.1667,21.5 13.5,22.1667 13.5,23.5C 10.4461,23.354 8.44611,24.6874 7.5,27.5C 6.83333,27.5 6.16667,27.5 5.5,27.5C 5.02539,24.9179 5.69206,22.9179 7.5,21.5C 8.83333,21.5 9.5,20.8333 9.5,19.5C 10.8333,19.5 11.5,18.8333 11.5,17.5C 12.8333,16.8333 14.1667,16.1667 15.5,15.5C 16.8333,15.5 17.5,14.8333 17.5,13.5 Z"/>
    </g>
    <g>
        <path class="yellow-fill"
              d="M 31.5,13.5 C 33.337,13.6395 33.6704,14.3061 32.5,15.5C 31.7025,15.0431 31.3691,14.3764 31.5,13.5 Z"/>
    </g>
    <g>
        <path class="red-fill"
              d="M 7.5,15.5 C 7.5,16.8333 6.83333,17.5 5.5,17.5C 5.5,16.1667 6.16667,15.5 7.5,15.5 Z"/>
    </g>
    <g>
        <path class="red-fill"
              d="M 5.5,17.5 C 5.5,18.8333 4.83333,19.5 3.5,19.5C 3.5,18.1667 4.16667,17.5 5.5,17.5 Z"/>
    </g>
    <g>
        <path class="red-fill"
              d="M 11.5,17.5 C 11.5,18.8333 10.8333,19.5 9.5,19.5C 9.5,18.1667 10.1667,17.5 11.5,17.5 Z"/>
    </g>
    <g>
        <path class="red-fill"
              d="M 1.5,19.5 C 2.16667,19.5 2.83333,19.5 3.5,19.5C 3.5,20.8333 2.83333,21.5 1.5,21.5C 1.5,20.8333 1.5,20.1667 1.5,19.5 Z"/>
    </g>
    <g>
        <path class="red-fill"
              d="M 9.5,19.5 C 9.5,20.8333 8.83333,21.5 7.5,21.5C 7.5,20.1667 8.16667,19.5 9.5,19.5 Z"/>
    </g>
    <g>
        <path class="red-fill"
              d="M 19.5,19.5 C 18.8166,21.1765 17.4832,21.8432 15.5,21.5C 16.1834,19.8235 17.5168,19.1568 19.5,19.5 Z"/>
    </g>
    <g>
        <path class="red-fill"
              d="M 69.5,21.5 C 69.5,25.5 69.5,29.5 69.5,33.5C 68.8333,33.5 68.1667,33.5 67.5,33.5C 67.5,32.1667 66.8333,31.5 65.5,31.5C 65.5,30.1667 64.8333,29.5 63.5,29.5C 63.5,28.8333 63.5,28.1667 63.5,27.5C 64.7348,27.2786 65.7348,26.6119 66.5,25.5C 67.1667,23.5 67.8333,21.5 68.5,19.5C 69.2975,19.9569 69.6309,20.6236 69.5,21.5 Z"/>
    </g>
    <g>
        <path class="red-fill"
              d="M -0.5,21.5 C 0.166667,21.5 0.833333,21.5 1.5,21.5C 1.97461,24.0821 1.30794,26.0821 -0.5,27.5C -0.5,25.5 -0.5,23.5 -0.5,21.5 Z"/>
    </g>
    <g>
        <path class="red-fill"
              d="M 15.5,21.5 C 15.5,22.8333 14.8333,23.5 13.5,23.5C 13.5,22.1667 14.1667,21.5 15.5,21.5 Z"/>
    </g>
    <g>
        <path class="red-fill"
              d="M 29.5,21.5 C 33.3573,20.9616 36.6906,21.9616 39.5,24.5C 35.1036,25.2458 30.7703,26.2458 26.5,27.5C 25.5,27.1667 24.5,26.8333 23.5,26.5C 25.6415,24.7965 27.6415,23.1298 29.5,21.5 Z"/>
    </g>
    <g>
        <path fill="#a7201a"
              d="M 61.5,21.5 C 62.8333,21.5 63.5,22.1667 63.5,23.5C 63.5,22.1667 62.8333,21.5 61.5,21.5 Z"/>
    </g>
    <g>
        <path class="yellow-fill"
              d="M 69.5,21.5 C 70.8333,23.5 72.1667,25.5 73.5,27.5C 73.5,30.1667 73.5,32.8333 73.5,35.5C 72.8333,35.5 72.1667,35.5 71.5,35.5C 71.5,34.1667 70.8333,33.5 69.5,33.5C 69.5,29.5 69.5,25.5 69.5,21.5 Z"/>
    </g>
    <g>
        <path class="red-fill"
              d="M 13.5,23.5 C 12.5539,26.3126 10.5539,27.646 7.5,27.5C 8.44611,24.6874 10.4461,23.354 13.5,23.5 Z"/>
    </g>
    <g>
        <path class="yellow-fill"
              d="M 57.5,23.5 C 57.762,24.9778 57.4287,26.3112 56.5,27.5C 56.1667,26.8333 55.8333,26.1667 55.5,25.5C 55.7472,24.2867 56.4138,23.62 57.5,23.5 Z"/>
    </g>
    <g>
        <path class="red-fill"
              d="M 47.5,27.5 C 45.663,27.3605 45.3296,26.6939 46.5,25.5C 47.2975,25.9569 47.6309,26.6236 47.5,27.5 Z"/>
    </g>
    <g>
        <path class="yellow-fill"
              d="M 5.5,27.5 C 5.5,28.8333 4.83333,29.5 3.5,29.5C 3.5,28.1667 4.16667,27.5 5.5,27.5 Z"/>
    </g>
    <g>
        <path fill="#a7201a"
              d="M 5.5,27.5 C 6.16667,27.5 6.83333,27.5 7.5,27.5C 6.4564,33.6365 4.78973,39.6365 2.5,45.5C 1.51998,42.9135 1.18665,40.2469 1.5,37.5C 3.30794,36.0821 3.97461,34.0821 3.5,31.5C 3.5,30.8333 3.5,30.1667 3.5,29.5C 4.83333,29.5 5.5,28.8333 5.5,27.5 Z"/>
    </g>
    <g>
        <path class="red-fill"
              d="M 19.5,27.5 C 21.337,27.6395 21.6704,28.3061 20.5,29.5C 19.7025,29.0431 19.3691,28.3764 19.5,27.5 Z"/>
    </g>
    <g>
        <path class="red-fill"
              d="M 47.5,27.5 C 48.8333,27.5 50.1667,27.5 51.5,27.5C 52.8333,27.5 53.5,28.1667 53.5,29.5C 53.5,30.1667 53.5,30.8333 53.5,31.5C 52.8333,31.5 52.1667,31.5 51.5,31.5C 49.5,30.8333 48.1667,29.5 47.5,27.5 Z"/>
    </g>
    <g>
        <path fill="#000302"
              d="M 53.5,29.5 C 55.5,29.5 57.5,29.5 59.5,29.5C 60.8333,29.5 62.1667,29.5 63.5,29.5C 63.5,30.1667 63.5,30.8333 63.5,31.5C 60.8333,31.5 58.1667,31.5 55.5,31.5C 54.8333,31.5 54.1667,31.5 53.5,31.5C 53.5,30.8333 53.5,30.1667 53.5,29.5 Z"/>
    </g>
    <g>
        <path class="yellow-fill"
              d="M 3.5,31.5 C 3.97461,34.0821 3.30794,36.0821 1.5,37.5C 1.02539,34.9179 1.69206,32.9179 3.5,31.5 Z"/>
    </g>
    <g>
        <path class="red-fill"
              d="M 43.5,31.5 C 45.337,31.6395 45.6704,32.3061 44.5,33.5C 43.7025,33.0431 43.3691,32.3764 43.5,31.5 Z"/>
    </g>
    <g>
        <path fill="#4f565d"
              d="M 53.5,31.5 C 54.1667,31.5 54.8333,31.5 55.5,31.5C 57.6353,33.369 60.3019,34.0356 63.5,33.5C 61.8986,36.5836 61.2319,39.917 61.5,43.5C 59.8235,42.8166 59.1568,41.4832 59.5,39.5C 54.6765,39.1118 52.6765,36.4452 53.5,31.5 Z"/>
    </g>
    <g>
        <path fill="#b6bdc5"
              d="M 55.5,31.5 C 58.1667,31.5 60.8333,31.5 63.5,31.5C 63.5,32.1667 63.5,32.8333 63.5,33.5C 60.3019,34.0356 57.6353,33.369 55.5,31.5 Z"/>
    </g>
    <g>
        <path fill="#010401"
              d="M 63.5,31.5 C 64.1667,31.5 64.8333,31.5 65.5,31.5C 66.8333,31.5 67.5,32.1667 67.5,33.5C 66.1667,33.5 64.8333,33.5 63.5,33.5C 63.5,32.8333 63.5,32.1667 63.5,31.5 Z"/>
    </g>
    <g>
        <path fill="#060000"
              d="M 17.5,33.5 C 16.1667,33.5 14.8333,33.5 13.5,33.5C 13.62,32.4138 14.2867,31.7472 15.5,31.5C 16.7133,31.7472 17.38,32.4138 17.5,33.5 Z"/>
    </g>
    <g>
        <path class="red-fill"
              d="M 69.5,33.5 C 70.8333,33.5 71.5,34.1667 71.5,35.5C 71.8432,37.4832 71.1765,38.8166 69.5,39.5C 69.5,37.5 69.5,35.5 69.5,33.5 Z"/>
    </g>
    <g>
        <path fill="#0a0000"
              d="M 17.5,33.5 C 19.4832,33.1568 20.8166,33.8235 21.5,35.5C 19.5168,35.8432 18.1834,35.1765 17.5,33.5 Z"/>
    </g>
    <g>
        <path fill="#000402"
              d="M 67.5,33.5 C 68.1667,33.5 68.8333,33.5 69.5,33.5C 69.5,35.5 69.5,37.5 69.5,39.5C 69.5,40.1667 69.5,40.8333 69.5,41.5C 68.8333,41.5 68.1667,41.5 67.5,41.5C 67.5,38.8333 67.5,36.1667 67.5,33.5 Z"/>
    </g>
    <g>
        <path class="red-fill"
              d="M 51.5,37.5 C 51.5,38.1667 51.5,38.8333 51.5,39.5C 50.1667,39.5 49.5,40.1667 49.5,41.5C 48.8333,41.5 48.1667,41.5 47.5,41.5C 47.2011,39.396 47.5344,37.396 48.5,35.5C 49.2652,36.6119 50.2652,37.2786 51.5,37.5 Z"/>
    </g>
    <g>
        <path fill="#b6bdc4"
              d="M 63.5,33.5 C 64.8333,33.5 66.1667,33.5 67.5,33.5C 67.5,36.1667 67.5,38.8333 67.5,41.5C 65.8235,42.1834 65.1568,43.5168 65.5,45.5C 64.1667,44.8333 62.8333,44.1667 61.5,43.5C 61.2319,39.917 61.8986,36.5836 63.5,33.5 Z"/>
    </g>
    <g>
        <path fill="#090000"
              d="M 21.5,35.5 C 24.0821,35.0254 26.0821,35.6921 27.5,37.5C 24.9179,37.9746 22.9179,37.3079 21.5,35.5 Z"/>
    </g>
    <g>
        <path fill="#2c3034"
              d="M 51.5,31.5 C 52.1667,31.5 52.8333,31.5 53.5,31.5C 52.6765,36.4452 54.6765,39.1118 59.5,39.5C 59.1568,41.4832 59.8235,42.8166 61.5,43.5C 62.8333,44.1667 64.1667,44.8333 65.5,45.5C 65.5,46.1667 65.5,46.8333 65.5,47.5C 64.1667,47.5 63.5,48.1667 63.5,49.5C 62.1667,49.5 60.8333,49.5 59.5,49.5C 59.7214,48.2652 60.3881,47.2652 61.5,46.5C 60.3112,45.5713 58.9778,45.238 57.5,45.5C 56.0821,43.6921 54.0821,43.0254 51.5,43.5C 51.5,42.1667 51.5,40.8333 51.5,39.5C 51.5,38.8333 51.5,38.1667 51.5,37.5C 51.5,35.5 51.5,33.5 51.5,31.5 Z"/>
    </g>
    <g>
        <path fill="#0a0000"
              d="M 27.5,37.5 C 30.0821,37.0254 32.0821,37.6921 33.5,39.5C 30.9179,39.9746 28.9179,39.3079 27.5,37.5 Z"/>
    </g>
    <g>
        <path fill="#1a0c05"
              d="M 13.5,33.5 C 15.5549,36.8883 18.2215,39.555 21.5,41.5C 18.7531,41.8134 16.0865,41.48 13.5,40.5C 10.9178,37.9167 10.9178,35.5833 13.5,33.5 Z"/>
    </g>
    <g>
        <path fill="#0a0000"
              d="M 33.5,39.5 C 36.6981,38.9644 39.3647,39.631 41.5,41.5C 38.3019,42.0356 35.6353,41.369 33.5,39.5 Z"/>
    </g>
    <g>
        <path fill="#000301"
              d="M 67.5,41.5 C 67.5,42.1667 67.5,42.8333 67.5,43.5C 67.5,44.1667 67.5,44.8333 67.5,45.5C 66.8333,45.5 66.1667,45.5 65.5,45.5C 65.1568,43.5168 65.8235,42.1834 67.5,41.5 Z"/>
    </g>
    <g>
        <path class="red-fill"
              d="M 67.5,41.5 C 68.1667,41.5 68.8333,41.5 69.5,41.5C 69.5,42.8333 68.8333,43.5 67.5,43.5C 67.5,42.8333 67.5,42.1667 67.5,41.5 Z"/>
    </g>
    <g>
        <path fill="#040303"
              d="M 21.5,41.5 C 24.0821,41.0254 26.0821,41.6921 27.5,43.5C 24.9179,43.9746 22.9179,43.3079 21.5,41.5 Z"/>
    </g>
    <g>
        <path fill="#090000"
              d="M 41.5,41.5 C 43.5,41.5 45.5,41.5 47.5,41.5C 47.5,42.1667 47.5,42.8333 47.5,43.5C 44.9179,43.9746 42.9179,43.3079 41.5,41.5 Z"/>
    </g>
    <g>
        <path fill="#050000"
              d="M 27.5,43.5 C 30.0821,43.0254 32.0821,43.6921 33.5,45.5C 30.9179,45.9746 28.9179,45.3079 27.5,43.5 Z"/>
    </g>
    <g>
        <path class="brown-fill"
              d="M 13.5,33.5 C 14.8333,33.5 16.1667,33.5 17.5,33.5C 18.1834,35.1765 19.5168,35.8432 21.5,35.5C 22.9179,37.3079 24.9179,37.9746 27.5,37.5C 28.9179,39.3079 30.9179,39.9746 33.5,39.5C 35.6353,41.369 38.3019,42.0356 41.5,41.5C 42.9179,43.3079 44.9179,43.9746 47.5,43.5C 45.9261,46.7084 43.2594,48.0418 39.5,47.5C 38.0821,45.6921 36.0821,45.0254 33.5,45.5C 32.0821,43.6921 30.0821,43.0254 27.5,43.5C 26.0821,41.6921 24.0821,41.0254 21.5,41.5C 18.2215,39.555 15.5549,36.8883 13.5,33.5 Z"/>
    </g>
    <g>
        <path fill="#080000"
              d="M 33.5,45.5 C 36.0821,45.0254 38.0821,45.6921 39.5,47.5C 36.9179,47.9746 34.9179,47.3079 33.5,45.5 Z"/>
    </g>
    <g>
        <path fill="#4e555c"
              d="M 51.5,43.5 C 54.0821,43.0254 56.0821,43.6921 57.5,45.5C 57.5,46.8333 57.5,48.1667 57.5,49.5C 55.8235,50.1834 55.1568,51.5168 55.5,53.5C 53.5,53.5 51.5,53.5 49.5,53.5C 49.2786,52.2652 48.6119,51.2652 47.5,50.5C 49.11,48.2746 50.4434,45.9413 51.5,43.5 Z"/>
    </g>
    <g>
        <path fill="#dde2e5"
              d="M 57.5,45.5 C 58.9778,45.238 60.3112,45.5713 61.5,46.5C 60.3881,47.2652 59.7214,48.2652 59.5,49.5C 58.8333,49.5 58.1667,49.5 57.5,49.5C 57.5,48.1667 57.5,46.8333 57.5,45.5 Z"/>
    </g>
    <g>
        <path class="red-fill"
              d="M 65.5,45.5 C 66.1667,45.5 66.8333,45.5 67.5,45.5C 67.5,46.8333 66.8333,47.5 65.5,47.5C 65.5,46.8333 65.5,46.1667 65.5,45.5 Z"/>
    </g>
    <g>
        <path class="red-fill"
              d="M 65.5,47.5 C 65.5,48.1667 65.5,48.8333 65.5,49.5C 64.8333,49.5 64.1667,49.5 63.5,49.5C 63.5,48.1667 64.1667,47.5 65.5,47.5 Z"/>
    </g>
    <g>
        <path fill="#1d1006"
              d="M 51.5,39.5 C 51.5,40.8333 51.5,42.1667 51.5,43.5C 50.4434,45.9413 49.11,48.2746 47.5,50.5C 48.6119,51.2652 49.2786,52.2652 49.5,53.5C 48.1667,54.8333 46.8333,56.1667 45.5,57.5C 45.7989,55.396 45.4656,53.396 44.5,51.5C 42.5106,50.3681 40.8439,49.0348 39.5,47.5C 43.2594,48.0418 45.9261,46.7084 47.5,43.5C 48.8333,43.5 49.5,42.8333 49.5,41.5C 49.5,40.1667 50.1667,39.5 51.5,39.5 Z"/>
    </g>
    <g>
        <path class="red-fill"
              d="M 7.5,49.5 C 9.17649,50.1834 9.84316,51.5168 9.5,53.5C 7.82351,52.8166 7.15684,51.4832 7.5,49.5 Z"/>
    </g>
    <g>
        <path fill="#acb5bc"
              d="M 57.5,49.5 C 57.8432,51.4832 57.1765,52.8166 55.5,53.5C 55.1568,51.5168 55.8235,50.1834 57.5,49.5 Z"/>
    </g>
    <g>
        <path class="yellow-fill"
              d="M 13.5,57.5 C 12.8333,57.5 12.1667,57.5 11.5,57.5C 11.5,56.1667 10.8333,55.5 9.5,55.5C 9.5,54.8333 9.5,54.1667 9.5,53.5C 9.84316,51.5168 9.17649,50.1834 7.5,49.5C 8.06563,47.9217 9.06563,46.5884 10.5,45.5C 12.126,49.3714 13.126,53.3714 13.5,57.5 Z"/>
    </g>
    <g>
        <path fill="#030201"
              d="M 63.5,49.5 C 64.1667,49.5 64.8333,49.5 65.5,49.5C 65.8432,51.4832 65.1765,52.8166 63.5,53.5C 63.5,52.1667 63.5,50.8333 63.5,49.5 Z"/>
    </g>
    <g>
        <path fill="#aa7443"
              d="M 59.5,49.5 C 60.8333,49.5 62.1667,49.5 63.5,49.5C 63.5,50.8333 63.5,52.1667 63.5,53.5C 61.5,52.8333 60.1667,51.5 59.5,49.5 Z"/>
    </g>
    <g>
        <path fill="#282b2e"
              d="M 57.5,49.5 C 58.1667,49.5 58.8333,49.5 59.5,49.5C 60.1667,51.5 61.5,52.8333 63.5,53.5C 60.91,55.4767 58.2433,57.4767 55.5,59.5C 55.38,58.4138 54.7133,57.7472 53.5,57.5C 51.5,58.1667 50.1667,59.5 49.5,61.5C 49.7472,62.7133 50.4138,63.38 51.5,63.5C 49.4451,66.8883 46.7785,69.555 43.5,71.5C 41.5,71.5 39.5,71.5 37.5,71.5C 38.6574,65.8379 41.3241,61.1712 45.5,57.5C 46.8333,56.1667 48.1667,54.8333 49.5,53.5C 51.5,53.5 53.5,53.5 55.5,53.5C 57.1765,52.8166 57.8432,51.4832 57.5,49.5 Z"/>
    </g>
    <g>
        <path class="red-fill"
              d="M 9.5,55.5 C 10.8333,55.5 11.5,56.1667 11.5,57.5C 10.1667,57.5 9.5,56.8333 9.5,55.5 Z"/>
    </g>
    <g>
        <path class="red-fill"
              d="M 11.5,57.5 C 12.1667,57.5 12.8333,57.5 13.5,57.5C 13.5,58.1667 13.5,58.8333 13.5,59.5C 12.1667,59.5 11.5,58.8333 11.5,57.5 Z"/>
    </g>
    <g>
        <path class="yellow-fill"
              d="M 13.5,57.5 C 14.8333,57.5 15.5,58.1667 15.5,59.5C 14.8333,59.5 14.1667,59.5 13.5,59.5C 13.5,58.8333 13.5,58.1667 13.5,57.5 Z"/>
    </g>
    <g>
        <path fill="#6b757c"
              d="M 55.5,59.5 C 54.1667,59.5 53.5,60.1667 53.5,61.5C 52.1667,61.5 51.5,62.1667 51.5,63.5C 50.4138,63.38 49.7472,62.7133 49.5,61.5C 50.1667,59.5 51.5,58.1667 53.5,57.5C 54.7133,57.7472 55.38,58.4138 55.5,59.5 Z"/>
    </g>
    <g>
        <path class="red-fill"
              d="M 13.5,59.5 C 14.1667,59.5 14.8333,59.5 15.5,59.5C 15.5,60.1667 15.5,60.8333 15.5,61.5C 14.1667,61.5 13.5,60.8333 13.5,59.5 Z"/>
    </g>
    <g>
        <path class="black-fill"
              d="M 55.5,59.5 C 55.5,60.8333 54.8333,61.5 53.5,61.5C 53.5,60.1667 54.1667,59.5 55.5,59.5 Z"/>
    </g>
    <g>
        <path class="red-fill"
              d="M 15.5,61.5 C 17.337,61.6395 17.6704,62.3061 16.5,63.5C 15.7025,63.0431 15.3691,62.3764 15.5,61.5 Z"/>
    </g>
    <g>
        <path class="black-fill"
              d="M 53.5,61.5 C 53.5,62.8333 52.8333,63.5 51.5,63.5C 51.5,62.1667 52.1667,61.5 53.5,61.5 Z"/>
    </g>
</svg>
