<svg version="1.1" id="Layer_1" xmlns="http://www.w3.org/2000/svg" xmlns:xlink="http://www.w3.org/1999/xlink" x="0px" y="0px"
	 viewBox="0 0 74 72" xml:space="preserve">
<g transform="translate(0.000000,72.000000) scale(0.100000,-0.100000)">
	<path d="M360,650c0-5,9-10,20-10s20-4,20-10c0-5-22-10-50-10c-27,0-50-4-50-10c0-5-25-10-56-10c-54,0-97-21-79-38c4-4,10-1,12,6
		c6,15,123,17,123,2c0-5-13-10-30-10c-16,0-30-4-30-10c0-5-9-10-20-10s-20-4-20-10c0-5-8-10-18-10s-24-9-32-20s-20-20-28-20
		c-7,0-28-16-47-35c-27-26-35-43-35-70c0-19-4-35-10-35c-5,0-10-18-10-40s5-40,10-40c6,0,10,14,10,30c0,17,5,30,10,30
		c6,0,10,14,10,30c0,17,5,30,10,30c6,0,10,14,10,30c0,21,5,30,16,30c9,0,29,14,44,30c15,17,35,30,44,30s16,5,16,10c0,6,14,10,30,10
		c17,0,30,5,30,10c0,6,27,10,60,10s60-4,60-10c0-5,9-10,20-10s20-4,20-10c0-5,11-10,25-10c27,0,103-66,90-78c-4-4-10-1-12,6
		c-3,6-13,12-23,12s-20,6-23,13c-2,6-8,9-12,5s6-21,24-37c30-28,44-81,21-81c-5,0-10,5-10,10c0,6-4,10-10,10c-15,0-12-58,3-63
		c7-2,8-8,3-13s-11-4-13,4c-3,6-18,12-34,12s-29,5-29,10c0,6-18,10-40,10s-40,5-40,10c0,6-13,10-30,10c-16,0-30,5-30,10
		c0,6-13,10-30,10c-16,0-30,5-30,10c0,6-9,10-20,10s-20,5-20,10c0,15-29,12-46-4c-18-19-18-53,0-72c8-8,31-14,50-14c20,0,36-4,36-10
		c0-5,14-10,30-10c17,0,30-4,30-10c0-5,14-10,30-10c17,0,30-4,30-10c0-5,14-10,30-10c17,0,30-4,30-10c0-5,7-10,16-10c8,0,22-6,30-14
		c16-17,19-66,4-66c-5,0-10-8-10-18s-9-24-20-32s-20-22-20-32s-4-18-10-18c-5,0-10-9-10-20c0-16,7-20,30-20c17,0,30,5,30,10
		c0,6,7,10,15,10c9,0,47,31,85,70c38,38,74,70,80,70c20,0,40,28,40,54c0,14,5,26,10,26c6,0,10,9,10,20s5,20,10,20c6,0,10,9,10,20
		s5,20,10,20c6,0,10,14,10,30c0,17-4,30-10,30s-10,30-10,70s-4,70-10,70c-5,0-10-11-10-25c0-29-40-75-65-75c-10,0-15,10-15,30
		c0,17-4,30-10,30c-5,0-10,9-10,20s-4,20-10,20c-5,0-10,9-10,20s-4,20-10,20c-5,0-10,7-10,16s-10,25-22,36c-19,16-20,21-8,28
		c8,5,11,12,7,17c-5,4-12,1-18-7c-8-13-10-13-18,0c-6,8-14,11-18,6s-2-11,5-13c6-3,12-13,12-23s6-20,13-23c6-2,9-8,5-12s-21,6-37,24
		c-16,17-36,31-45,31s-16,5-16,10c0,6-9,10-20,10S360,656,360,650z"/>
</g>
</svg>
